
<svg xmlns="http://www.w3.org/2000/svg" viewBox="0 0 2500 2537">
  <svg viewBox="0 0 241.2 241.2" height="2300" width="2300" y="100" x="100">
    <g transform="matrix(1 0 0 1 0 0)">
      <g opacity=".8" fill="#323639">
        <circle cx="120.1" cy="120.8" r="100.4" fill="white"/>
        <path d="M121 0C53.9-.6-.6 53.9 0 121c.6 65.2 53.8 118.4 119 119 67.1.6 121.6-53.9 121-121C239.4 53.8 186.2.6 121 0zM90.5 59c.3-.9 1-1.5 2.2-1.2 2.2.5 19.9 4.3 19.9 4.3s36.8-5.6 38.1-5.9c1.1-.2 1.9.4 2.1 1.4.1.4 6.3 21.3 11.7 39.5H78.3C83.9 79.6 90.1 60 90.5 59zm85.9 103.3c-.8 12.2-10.7 22.1-22.9 22.9-14.3.9-26.1-10.4-26.1-24.5 0-.7 0-1.4.1-2.1-2-.7-4.2-1-6.4-1-2.3 0-4.5.4-6.7 1.1.1.7.1 1.3.1 2 0 14.1-11.8 25.4-26.1 24.5-12.2-.8-22.1-10.7-22.9-22.9-.8-14.2 10.5-26.1 24.5-26.1 10.2 0 19 6.3 22.7 15.2 2.7-.8 5.5-1.3 8.4-1.3 2.8 0 5.5.4 8.1 1.2 3.7-8.9 12.4-15.1 22.7-15.1 14.1 0 25.4 11.9 24.5 26.1zm23.4-34.3H42.4c-.2 0-.3-.3-.1-.4 5.2-2.7 35.4-17.6 79-17.6 43.7 0 73.5 14.8 78.6 17.6.2.1.1.4-.1.4z"/>
        <circle cx="151.9" cy="160.8" r="17.4"/>
        <circle cx="90.1" cy="160.8" r="17.4"/>
      </g>
    </g>
  </svg>
  <svg viewBox="0 0 64 64" enable-background="new 0 0 64 64">
    <path d="M32,2C15.432,2,2,15.432,2,32.001C2,48.567,15.432,62,32,62s30-13.433,30-29.999C62,15.432,48.568,2,32,2z M54,32.001
      c0,4.629-1.433,8.922-3.876,12.465l-30.591-30.59C23.077,11.433,27.37,10,32,10C44.15,10,54,19.851,54,32.001z M10,32.001
      c0-4.63,1.434-8.924,3.876-12.468l30.591,30.591C40.924,52.567,36.63,54.001,32,54.001C19.85,54.001,10,44.149,10,32.001z" fill="#e53935"/>
	</svg>
</svg>